<svg xmlns="http://www.w3.org/2000/svg" viewBox="0 0 64 64" role="img" aria-labelledby="title desc">
  <title id="title">Rayenna Oil favicon</title>
  <desc id="desc">A navy droplet with a gold orbit and globe, representing Rayenna Oil.</desc>
  <defs>
    <linearGradient id="navy" x1="0" x2="0" y1="0" y2="1">
      <stop offset="0%" stop-color="#102c82" />
      <stop offset="100%" stop-color="#08174d" />
    </linearGradient>
    <linearGradient id="gold" x1="0" x2="1" y1="0" y2="1">
      <stop offset="0%" stop-color="#f2b14c" />
      <stop offset="100%" stop-color="#b8771d" />
    </linearGradient>
  </defs>
  <path d="M32 3c-1.8 8-6.2 13.6-11.2 19-6.4 7-10.2 13.8-10.2 22.1C10.6 56 20.1 61 32 61s21.4-5 21.4-16.9c0-8.3-3.8-15.1-10.2-22.1C38.2 16.6 33.8 11 32 3Z" fill="url(#navy)"/>
  <circle cx="32" cy="35" r="12" fill="#0d2b78" stroke="#ffffff" stroke-width="2.4"/>
  <path d="M20 35c3.1-3.5 7.3-5.6 12-5.6 4.7 0 8.9 2.1 12 5.6-3.1 3.5-7.3 5.6-12 5.6-4.7 0-8.9-2.1-12-5.6Z" fill="none" stroke="#ffffff" stroke-width="1.2" opacity="0.65"/>
  <path d="M32 23v24M20 35h24" stroke="#ffffff" stroke-width="1.1" opacity="0.45"/>
  <path d="M9 36c6.1-8 14.1-12 24-12 8.4 0 15.8 2.5 22 7.7-2.3.4-4.5 1.2-6.3 2.4-4.7-2.8-10-4.2-15.8-4.2-9.2 0-17 3.7-23.5 11.2-1.4-1.8-1.6-3.6-.4-5.1Z" fill="url(#gold)"/>
</svg>
